#!OML:ASF F:\VICON\USERDATA\INSTALL\rory3\rory3.ASF
:FULLY-SPECIFIED
:DEGREES
60
root 0.4386568342580575 17.262066181573843 12.162966559691744 1.7582458364407927 0.39850733409648476 -1.3361129367069808
lfemur -29.07058509406134 7.195841229828279 -17.0718515872483
ltibia 44.5297175412714
lfoot -9.817206168691383 4.995329709076763
ltoes -14.601286447971459
rfemur -28.136869527030907 -5.3639536228870845 19.966241709132923
rtibia 46.66520930889904
rfoot -13.805291596962052 0.06324338196511681
rtoes 4.900232823372
lowerback 5.030180008235166 1.3052259730448463 -1.0183197551435827
upperback 3.7131690537132775 1.5878649970192276 1.485462236890297
thorax 0.0378959336087048 0.8124591821228888 1.9543930573651773
lowerneck -10.453804310959866 -1.3578109380414116 -2.119535820619832
upperneck 30.021777499078034 -2.352904736082782 3.346676166304936
head 11.65664371984714 -0.7871517418653102 1.1729264128055386
lclavicle 1.1613981274165246e-15 -1.2762891400859271e-15
lhumerus -27.374673828011982 8.285236554521656 84.42149096482576
lradius 19.20537188713387
lwrist 12.448995715608039
lhand -25.605042856403923 -8.704516713401373
lfingers 7.125019999999998
lthumb 0.9272699374612015 21.25369036014624
rclavicle 1.1613981274165246e-15 -1.2762891400859271e-15
rhumerus -20.105296812355927 -10.51750189851173 -82.31238101719086
rradius 31.88845073743841
rwrist 36.21640259954003
rhand -20.75084234353435 -28.185453642840137
rfingers 7.125019999999998
rthumb 5.616045634080767 -58.07776697038164
61
root 0.46705579269102215 17.41664736407887 13.46199549300578 4.150630282058545 0.28095299648426775 -1.3506163077659954
lfemur -26.80798530024636 7.02101136556545 -17.084602467823146
ltibia 40.56329876755963
lfoot -10.048848305432207 5.2435406691921145
ltoes -12.751553730251832
rfemur -26.06037863562792 -4.402105825779317 20.079956134325375
rtibia 42.477156121886225
rfoot -14.015127642268155 0.6631358578560751
rtoes 6.753836951693699
lowerback 4.271039477303681 1.243232490608921 -0.8925932490334247
upperback 3.3657538860233935 1.5364049037283372 1.4148787442392718
thorax 0.5711253423037781 0.7874365239121096 1.866097994149681
lowerneck -10.508120308108236 -1.334036208769496 -2.024702696916678
upperneck 30.208919709535618 -2.3126243968870956 3.31260836139266
head 11.738724993057886 -0.7736782294181432 1.1484288290991098
lclavicle 1.4412728882200367e-15 -9.686159501416389e-16
lhumerus -29.438032420770995 9.031833511610287 83.99885934554052
lradius 18.95751787072827
lwrist 10.963535233333106
lhand -25.02065023766304 -8.105310335595997
lfingers 7.125019999999998
lthumb 1.4915654377901157 21.851713308589815
rclavicle 1.4412728882200367e-15 -9.686159501416389e-16
rhumerus -20.438845939736492 -10.62585902585234 -81.98212435891863
rradius 32.31295212512646
rwrist 36.14031019448123
rhand -20.842707804366785 -28.244985743563706
rfingers 7.125019999999998
rthumb 5.527395939808375 -58.14276431042387
62
root 0.4783909903310976 17.54379439220416 14.112403711805305 6.15502343986633 0.22768106103261898 -1.4071289092841117
lfemur -24.550750108288753 7.04264197408713 -17.186111459398926
ltibia 35.45491173370488
lfoot -10.030186491975229 4.995112931853747
ltoes -10.882620285904256
rfemur -24.052615956132968 -3.738291763542641 20.145991521019475
rtibia 37.34850892330041
rfoot -13.975906559304399 1.1748139054626963
rtoes 8.557063266748628
lowerback 3.1945273682246036 1.1567462742425088 -0.8234134340569556
upperback 2.9514963480705947 1.4452899568859094 1.3638204535508378
thorax 1.054375147437102 0.737739595830558 1.7968964026421956
lowerneck -10.605949427412 -1.3313264758895058 -1.99353212382793
upperneck 30.126212977502576 -2.2939891876000456 3.254538568193696
head 11.713003008578674 -0.7730562797167979 1.1270457220574017
lclavicle 1.475390408435479e-15 -9.310734991663627e-16
lhumerus -31.209845528004884 8.549164107288895 83.40299802337312
lradius 18.413785439871127
lwrist 9.078283166380928
lhand -24.6239927375522 -7.786970819932259
lfingers 7.125019999999998
lthumb 1.874569436285861 22.169350680889547
rclavicle 1.4753904084354794e-15 -9.310734991663627e-16
rhumerus -21.141079000111258 -12.501577844648454 -81.23141151359583
rradius 31.329839280092603
rwrist 36.81110262889414
rhand -20.830045042293936 -28.243280468720815
rfingers 7.125019999999998
rthumb 5.539609062568225 -58.14111871955059
63
root 0.47749102576747804 17.660019015609276 14.406210843691964 7.785013988209006 0.1816569323499273 -1.4995710500698334
lfemur -22.65718099357555 7.068666680607513 -17.294033043315117
ltibia 30.423772182277116
lfoot -9.759107484565167 4.583698443305615
ltoes -9.160916762787295
rfemur -22.370789994657454 -3.2563283348302225 20.18847138914959
rtibia 32.363040892661274
rfoot -13.688527765030468 1.5859748634505095
rtoes 10.257770666973842
lowerback 2.101300146121145 1.0812477675160115 -0.7975272979374547
upperback 2.5823583963705894 1.3529747135168184 1.330443692542864
thorax 1.4304239634519766 0.688710740146625 1.742930276587267
lowerneck -10.751327297572459 -1.3279770435332514 -1.9877354411015073
upperneck 29.882006481435976 -2.2778128363347383 3.1869016479586545
head 11.63418181391886 -0.7732648356544481 1.1104905866831216
lclavicle 1.3682583386508583e-15 -1.0488590833502203e-15
lhumerus -32.752614902051164 7.229394066511969 83.09244732483232
lradius 17.896529881948144
lwrist 7.537558522189489
lhand -24.452260053176545 -7.6333454212963066
lfingers 7.125019999999998
lthumb 2.0403908523182244 22.32455397175807
rclavicle 1.3682583386508583e-15 -1.0488590833502201e-15
rhumerus -22.243830859135496 -15.305705839992497 -80.29784200995583
rradius 29.408683412342242
rwrist 37.87779221119185
rhand -20.689110699618645 -28.180362074100067
rfingers 7.125019999999998
rthumb 5.675601125637843 -58.07446458131399
64
root 0.4768925160633672 17.81828058237717 14.696458921781923 9.133276434436873 0.1341543131777575 -1.6134469239091604
lfemur -20.834619997844896 7.109753928542355 -17.323803992347898
ltibia 26.546173576773253
lfoot -9.052775382389344 4.302189119065273
ltoes -7.636194541472658
rfemur -20.660481082676693 -2.9212871921411248 20.297715236301926
rtibia 28.50270906223367
rfoot -12.945353507259249 1.9026048741528827
rtoes 11.907557642214886
lowerback 1.2455112445123264 1.0217767721859614 -0.779198877005406
upperback 2.33586435719155 1.2677755724043158 1.3110485517244894
thorax 1.8225611425909731 0.6464642902833584 1.7131536127662768
lowerneck -10.827958191681624 -1.284817223147444 -1.9828939591519377
upperneck 29.84565485014786 -2.2043598807346014 3.137302088253799
head 11.632318998392975 -0.7522027488183686 1.105824635215636
lclavicle 1.3704250295326725e-15 -1.0466743389824319e-15
lhumerus -33.357967043308705 5.331961241274686 83.36891399468512
lradius 17.975413453812777
lwrist 7.217089548999317
lhand -24.453182923935902 -7.514393297243929
lfingers 7.125019999999998
lthumb 2.0395123733224994 22.447099920334704
rclavicle 1.3704250295326725e-15 -1.0466743389824319e-15
rhumerus -23.271851672295234 -17.487283797941664 -79.4222824365118
rradius 27.56139791418163
rwrist 38.9256566208993
rhand -20.405749848584186 -28.021706648296316
rfingers 7.125019999999998
rthumb 5.949015076800538 -57.906750874296264
65
root 0.47700963207530633 17.968932932472608 14.713226954577626 9.998838010724926 0.03466555426184992 -1.7547292574825502
lfemur -19.340762950511802 7.172493453233305 -17.314940053198615
ltibia 23.46637936120915
lfoot -8.387602059380738 4.051031114345081
ltoes -6.647478979236676
rfemur -19.182952765855582 -2.777750289272204 20.454545839667347
rtibia 25.341755992371375
rfoot -12.23191080829424 2.018212763748947
rtoes 13.132861924813366
lowerback 0.4072014261550666 0.9428999727218351 -0.7466162920447855
upperback 2.1361552529357004 1.1538209438732012 1.2806883764453276
thorax 2.1900521413596894 0.5906734571082336 1.6695273531535757
lowerneck -10.864293888393792 -1.2064468244636097 -1.990664327981315
upperneck 29.89600840035076 -2.0869649792174543 3.071002064162661
head 11.664175059388931 -0.7143373005503265 1.1045555676558758
lclavicle 1.296506680046618e-15 -1.1280972407075051e-15
lhumerus -33.01637973211042 3.0553014836810846 83.91224035686822
lradius 18.594719271216817
lwrist 7.74089713094366
lhand -24.579395697288138 -7.446695075816811
lfingers 7.125019999999998
lthumb 1.9176669927165695 22.51968344193832
rclavicle 1.296506680046618e-15 -1.1280972407075051e-15
rhumerus -24.072113621678437 -18.507473206533664 -78.89816159317998
rradius 26.280320037190293
rwrist 39.453162606858605
rhand -20.059257790229864 -27.81390240830362
rfingers 7.125019999999998
rthumb 6.28333982098369 -57.68635209253833
66
root 0.4723962319256637 18.038744311376288 14.486320745112279 10.301889001106241 -0.1336863363797548 -1.9106916466664174
lfemur -18.359979431513736 7.220834735522716 -17.30585364896392
ltibia 20.786653625140975
lfoot -8.210148305708952 3.7869212645159545
ltoes -6.378151343754199
rfemur -18.182833787684878 -2.7578291155977634 20.596488658750676
rtibia 22.48202825837595
rfoot -12.01159901937727 1.9839861866361321
rtoes 13.72176494698952
lowerback -0.4853552609293422 0.8456999231281068 -0.6800251066703883
upperback 1.9349174702352214 1.0208707130021095 1.2345812246684178
thorax 2.4336113860870334 0.5244492936551546 1.58842507686289
lowerneck -10.913385319292933 -1.119115669751544 -2.0175623262786604
upperneck 29.835281523123804 -1.9656866136791815 2.9713150537244593
head 11.655549418469427 -0.6739214788962404 1.0990223219943749
lclavicle 1.042501327200331e-15 -1.4073215318828758e-15
lhumerus -32.31769202514555 0.8708119876732474 84.40557898345008
lradius 19.340543611336507
lwrist 8.50788539101812
lhand -24.790697706891454 -7.476259709814049
lfingers 7.125019999999998
lthumb 1.7136596216560414 22.49576940823207
rclavicle 1.042501327200331e-15 -1.407321531882876e-15
rhumerus -24.70710106595823 -18.737022158753128 -78.76486574619582
rradius 25.373640704314425
rwrist 39.48080952951441
rhand -19.7305988142609 -27.641113669700896
rfingers 7.125019999999998
rthumb 6.600473445015885 -57.502276757228614
67
root 0.46509785176235163 18.053089333658367 14.487015174232551 10.324109518697538 -0.2901694849691158 -2.0388839549384383
lfemur -17.481252144750584 7.268432779652111 -17.23673119406749
ltibia 19.034589359515913
lfoot -8.235112661820384 3.806171049132483
ltoes -6.4904453830188915
rfemur -17.32393625055089 -2.7218200099421415 20.736321517567095
rtibia 20.564720307337538
rfoot -12.021292778265499 1.983218899858306
rtoes 13.961530754153678
lowerback -1.1063981131429714 0.7783943343539486 -0.5859684379904423
upperback 1.7773329530909523 0.9307713640103719 1.2026404271011597
thorax 2.626516127389651 0.4791839613859249 1.5187206720706026
lowerneck -10.923781291895814 -1.038270228549109 -2.0531614104209273
upperneck 29.939037496207327 -1.8523848988321465 2.912530539780912
head 11.70088285194748 -0.6354809566065546 1.10321124148287
lclavicle 9.069769171289717e-16 -1.5563104256341084e-15
lhumerus -31.34859010342526 -0.41775495840474974 84.96012901803321
lradius 19.930779755117424
lwrist 9.112233200752744
lhand -24.913286512928277 -7.45816940930052
lfingers 7.125019999999998
lthumb 1.595306996328222 22.51788873353457
rclavicle 9.069769171289717e-16 -1.5563104256341084e-15
rhumerus -24.950584896308047 -18.39095784833127 -78.8547620226717
rradius 24.776173584196066
rwrist 39.38867380331608
rhand -19.41663323583099 -27.50604085421698
rfingers 7.125019999999998
rthumb 6.90344824240013 -57.35892739526726
